<svg width="1876" height="1500" viewBox="0 0 1876 1500" fill="none" xmlns="http://www.w3.org/2000/svg">
<rect x="0.5" width="1875" height="1500" fill="white"/>
<path fill-rule="evenodd" clip-rule="evenodd" d="M1155.5 1005H473C444.005 1005 420.5 981.495 420.5 952.5C420.5 923.505 444.005 900 473 900H180.5C151.505 900 128 876.495 128 847.5C128 818.505 151.505 795 180.5 795H480.5C509.495 795 533 771.495 533 742.5C533 713.505 509.495 690 480.5 690H293C264.005 690 240.5 666.495 240.5 637.5C240.5 608.505 264.005 585 293 585H593C564.005 585 540.5 561.495 540.5 532.5C540.5 503.505 564.005 480 593 480H1020.5C1049.49 480 1073 503.505 1073 532.5C1073 561.495 1049.49 585 1020.5 585H1500.5C1529.49 585 1553 608.505 1553 637.5C1553 666.495 1529.49 690 1500.5 690H1665.5C1694.49 690 1718 713.505 1718 742.5C1718 771.495 1694.49 795 1665.5 795H1523C1494.01 795 1470.5 818.505 1470.5 847.5C1470.5 876.495 1494.01 900 1523 900H1568C1596.99 900 1620.5 923.505 1620.5 952.5C1620.5 981.495 1596.99 1005 1568 1005H1178C1174.14 1005 1170.37 1004.58 1166.75 1003.79C1163.13 1004.58 1159.36 1005 1155.5 1005Z" fill="#C8C8C8"/>
<path fill-rule="evenodd" clip-rule="evenodd" d="M690.5 1050C599.373 1050 525.5 977.806 525.5 888.75C525.5 799.694 599.373 727.5 690.5 727.5C694.375 727.5 698.219 727.631 702.027 727.887C699.381 713.158 698 697.991 698 682.5C698 541.667 812.167 427.5 953 427.5C1065.43 427.5 1160.87 500.265 1194.79 601.271C1202.83 600.431 1210.99 600 1219.25 600C1345.59 600 1448 700.736 1448 825C1448 943.055 1355.56 1040.46 1238 1049.84V1050H814.309M780.469 1050H728.234H780.469Z" fill="white"/>
<path d="M690.5 1059.38C695.678 1059.38 699.875 1055.18 699.875 1050C699.875 1044.82 695.678 1040.62 690.5 1040.62V1059.38ZM702.027 727.887L701.396 737.241L713.378 738.049L711.255 726.23L702.027 727.887ZM1194.79 601.271L1185.9 604.256L1188.29 611.377L1195.76 610.595L1194.79 601.271ZM1238 1049.84L1237.25 1040.49L1228.62 1041.18V1049.84H1238ZM1238 1050V1059.38H1247.38V1050H1238ZM814.309 1040.62C809.131 1040.62 804.934 1044.82 804.934 1050C804.934 1055.18 809.131 1059.38 814.309 1059.38V1040.62ZM780.469 1059.38C785.647 1059.38 789.844 1055.18 789.844 1050C789.844 1044.82 785.647 1040.62 780.469 1040.62V1059.38ZM728.234 1040.62C723.057 1040.62 718.859 1044.82 718.859 1050C718.859 1055.18 723.057 1059.38 728.234 1059.38V1040.62ZM690.5 1040.62C604.346 1040.62 534.875 972.426 534.875 888.75H516.125C516.125 983.186 594.4 1059.38 690.5 1059.38V1040.62ZM534.875 888.75C534.875 805.074 604.346 736.875 690.5 736.875V718.125C594.4 718.125 516.125 794.314 516.125 888.75H534.875ZM690.5 736.875C694.164 736.875 697.798 736.998 701.396 737.241L702.658 718.534C698.64 718.263 694.586 718.125 690.5 718.125V736.875ZM711.255 726.23C708.706 712.045 707.375 697.432 707.375 682.5H688.625C688.625 698.549 690.056 714.272 692.8 729.545L711.255 726.23ZM707.375 682.5C707.375 546.845 817.345 436.875 953 436.875V418.125C806.99 418.125 688.625 536.49 688.625 682.5H707.375ZM953 436.875C1061.28 436.875 1153.23 506.952 1185.9 604.256L1203.68 598.287C1168.51 493.578 1069.58 418.125 953 418.125V436.875ZM1195.76 610.595C1203.48 609.789 1211.31 609.375 1219.25 609.375V590.625C1210.66 590.625 1202.17 591.073 1193.81 591.947L1195.76 610.595ZM1219.25 609.375C1340.55 609.375 1438.62 706.059 1438.62 825H1457.38C1457.38 695.413 1350.62 590.625 1219.25 590.625V609.375ZM1438.62 825C1438.62 938.028 1350.08 1031.49 1237.25 1040.49L1238.75 1059.18C1361.05 1049.42 1457.38 948.081 1457.38 825H1438.62ZM1228.62 1049.84V1050H1247.38V1049.84H1228.62ZM1238 1040.62H814.309V1059.38H1238V1040.62ZM780.469 1040.62H728.234V1059.38H780.469V1040.62Z" fill="black"/>
<path fill-rule="evenodd" clip-rule="evenodd" d="M875.093 482.57C875.093 724.243 1092.75 923.385 1373 950.272C1337.88 993.458 1283.64 1022.76 1221.85 1027.36V1027.5H718.573C657.51 1027.5 555.5 1001.77 555.5 889.113C555.5 776.452 634.806 750.725 718.573 750.725C722.135 750.725 725.668 750.837 729.169 751.058C726.737 738.417 726.309 725.388 725.467 712.105C719.778 622.381 758.922 509.302 875.228 472.5C875.135 475.855 875.093 479.208 875.093 482.57Z" fill="#C8C8C8"/>
<path d="M1028 517.5C1076.82 530.419 1115.36 568.596 1128.8 617.199" stroke="black" stroke-width="18.75" stroke-linecap="round"/>
<path d="M810.5 761.25C810.5 788.174 834.005 810 863 810C891.995 810 915.5 788.174 915.5 761.25" stroke="black" stroke-width="18.75" stroke-linecap="round"/>
<path d="M1028 761.25C1028 788.174 1051.51 810 1080.5 810C1109.49 810 1133 788.174 1133 761.25" stroke="black" stroke-width="18.75" stroke-linecap="round"/>
<path d="M915.5 900H1024.25" stroke="black" stroke-width="18.75" stroke-linecap="round"/>
<path fill-rule="evenodd" clip-rule="evenodd" d="M519.169 452.19H429.574V470.01H492.934L424.294 553.17V570H520.819V552.18H450.529L519.169 467.865V452.19ZM619.761 566.819H554.601V579.779H600.681L550.761 640.259V652.499H620.961V639.539H569.841L619.761 578.219V566.819Z" fill="black"/>
</svg>
