<svg width="24" height="24" viewBox="0 0 24 24" fill="none" xmlns="http://www.w3.org/2000/svg">
<path opacity="0.4" d="M22 12C22 17.524 17.523 22 12 22C6.477 22 2 17.524 2 12C2 6.478 6.477 2 12 2C17.523 2 22 6.478 22 12Z" fill="#151924"/>
<path d="M15.5734 15.8145C15.4424 15.8145 15.3104 15.7805 15.1894 15.7095L11.2634 13.3675C11.0374 13.2315 10.8984 12.9865 10.8984 12.7225V7.67554C10.8984 7.26154 11.2344 6.92554 11.6484 6.92554C12.0624 6.92554 12.3984 7.26154 12.3984 7.67554V12.2965L15.9584 14.4195C16.3134 14.6325 16.4304 15.0925 16.2184 15.4485C16.0774 15.6835 15.8284 15.8145 15.5734 15.8145Z" fill="#151924"/>
</svg>
